<mxfile host="app.diagrams.net" modified="2022-06-20T08:13:18.224Z" agent="5.0 (X11; Linux x86_64) AppleWebKit/537.36 (KHTML, like Gecko) Chrome/102.0.0.0 Safari/537.36" etag="Tr1c-zJbOU0k9k753RiY" version="20.0.1" type="github">
  <diagram id="dgJLXRUxx70ehMld0Qd0" name="Page-1">
    <mxGraphModel dx="813" dy="439" grid="1" gridSize="10" guides="1" tooltips="1" connect="1" arrows="1" fold="1" page="1" pageScale="1" pageWidth="827" pageHeight="1169" math="0" shadow="0">
      <root>
        <mxCell id="0" />
        <mxCell id="1" parent="0" />
        <mxCell id="5arSg2raXsag15I45JpB-1" value="" style="rounded=0;whiteSpace=wrap;html=1;" vertex="1" parent="1">
          <mxGeometry x="90" y="360" width="160" height="80" as="geometry" />
        </mxCell>
        <mxCell id="5arSg2raXsag15I45JpB-2" value="" style="rounded=0;whiteSpace=wrap;html=1;" vertex="1" parent="1">
          <mxGeometry x="90" y="460" width="280" height="100" as="geometry" />
        </mxCell>
        <mxCell id="5arSg2raXsag15I45JpB-3" value="&lt;font color=&quot;#ff3333&quot; style=&quot;font-size: 14px;&quot;&gt;interface UserDao {&lt;br&gt;&lt;span style=&quot;white-space: pre;&quot;&gt;	&lt;/span&gt;public void login()&lt;br&gt;}&lt;/font&gt;" style="text;html=1;strokeColor=none;fillColor=none;align=left;verticalAlign=middle;whiteSpace=wrap;rounded=0;" vertex="1" parent="1">
          <mxGeometry x="100" y="360" width="160" height="60" as="geometry" />
        </mxCell>
        <mxCell id="5arSg2raXsag15I45JpB-5" value="&lt;span style=&quot;font-size: 14px;&quot;&gt;&lt;font color=&quot;#009900&quot;&gt;class UserDaoImpl implements UserDao {&lt;br&gt;&lt;span style=&quot;white-space: pre;&quot;&gt;	&lt;/span&gt;public void login() {&lt;br&gt;&lt;span style=&quot;white-space: pre;&quot;&gt;	&lt;span style=&quot;white-space: pre;&quot;&gt;	&lt;/span&gt;/&lt;/span&gt;/登录实现过程&lt;br&gt;&lt;span style=&quot;white-space: pre;&quot;&gt;	&lt;/span&gt;}&lt;br&gt;}&lt;/font&gt;&lt;br&gt;&lt;/span&gt;" style="text;html=1;strokeColor=none;fillColor=none;align=left;verticalAlign=middle;whiteSpace=wrap;rounded=0;" vertex="1" parent="1">
          <mxGeometry x="100" y="480" width="270" height="60" as="geometry" />
        </mxCell>
        <mxCell id="5arSg2raXsag15I45JpB-6" value="动态代理&lt;br&gt;有接口" style="text;html=1;strokeColor=none;fillColor=none;align=center;verticalAlign=middle;whiteSpace=wrap;rounded=0;fontSize=14;fontColor=#009900;" vertex="1" parent="1">
          <mxGeometry x="10" y="375" width="60" height="30" as="geometry" />
        </mxCell>
        <mxCell id="5arSg2raXsag15I45JpB-7" value="&lt;font color=&quot;#000000&quot;&gt;JDK动态代理&lt;/font&gt;" style="text;html=1;strokeColor=none;fillColor=none;align=center;verticalAlign=middle;whiteSpace=wrap;rounded=0;fontSize=14;fontColor=#009900;" vertex="1" parent="1">
          <mxGeometry x="400" y="375" width="110" height="30" as="geometry" />
        </mxCell>
        <mxCell id="5arSg2raXsag15I45JpB-8" value="&lt;font color=&quot;#000000&quot;&gt;创建UserDao接口实现类代理对象&lt;/font&gt;" style="text;html=1;strokeColor=none;fillColor=none;align=center;verticalAlign=middle;whiteSpace=wrap;rounded=0;fontSize=14;fontColor=#009900;" vertex="1" parent="1">
          <mxGeometry x="414" y="440" width="226" height="30" as="geometry" />
        </mxCell>
        <mxCell id="5arSg2raXsag15I45JpB-15" style="edgeStyle=orthogonalEdgeStyle;rounded=0;orthogonalLoop=1;jettySize=auto;html=1;fontSize=14;fontColor=#000000;" edge="1" parent="1" source="5arSg2raXsag15I45JpB-9">
          <mxGeometry relative="1" as="geometry">
            <mxPoint x="250" y="390" as="targetPoint" />
            <Array as="points">
              <mxPoint x="380" y="510" />
              <mxPoint x="380" y="390" />
            </Array>
          </mxGeometry>
        </mxCell>
        <mxCell id="5arSg2raXsag15I45JpB-9" value="&lt;font color=&quot;#000000&quot;&gt;代理对象&lt;/font&gt;" style="rounded=0;whiteSpace=wrap;html=1;fontSize=14;fontColor=#009900;" vertex="1" parent="1">
          <mxGeometry x="420" y="480" width="114" height="60" as="geometry" />
        </mxCell>
      </root>
    </mxGraphModel>
  </diagram>
</mxfile>
